# xmcd
#
# Track frame offsets:
#	151
#	14130
#	26823
#	47660
#	62323
#	81164
#	102501
#	121740
#	134543
#	156944
#	172775
#	187332
#	206831
#
# Disc length: 3031 seconds
#
# Revision: 0
# Processed by: cddbd v1.5.2PL0 Copyright (c) Steve Scherf et al.
# Submitted via: EasyCDDAExtractor 2011.0.0.0
#
DISCID=b60bd50d
DTITLE=Santana - Exitos "Flor de Luna"
DYEAR=1900
DGENRE=Blues
TTITLE0=Evil Ways
TTITLE1=Tingo
TTITLE2=Samba Pa' Ti
TTITLE3=Black Magic Woman
TTITLE4=Hope You're Feeling Better
TTITLE5=Flor de Luna
TTITLE6=Oye Como Va
TTITLE7=Se Acabo
TTITLE8=Europa
TTITLE9=Everybody's Everything
TTITLE10=Everythings Coming Our Way
TTITLE11=Maria Maria
TTITLE12=Corazon Espinado
EXTD=
EXTT0=
EXTT1=
EXTT2=
EXTT3=
EXTT4=
EXTT5=
EXTT6=
EXTT7=
EXTT8=
EXTT9=
EXTT10=
EXTT11=
EXTT12=
PLAYORDER=
